<?xml version="1.0" encoding="utf-8"?>
<!-- Generator: Adobe Illustrator 24.3.0, SVG Export Plug-In . SVG Version: 6.00 Build 0)  -->
<svg version="1.1" xmlns="http://www.w3.org/2000/svg" xmlns:xlink="http://www.w3.org/1999/xlink" x="0px" y="0px"
	 viewBox="0 0 400 307.95" style="enable-background:new 0 0 400 307.95;" xml:space="preserve">
<g id="Layer_1">
</g>
<g id="Layer_2">
	<g>
		<g>
			<path d="M74.22,12.39h93.57c17.52,0,35.11,2.92,52.76,8.76c17.65,5.84,33.58,14.67,47.78,26.48
				c14.2,11.81,25.68,26.55,34.44,44.2c8.76,17.66,13.14,38.16,13.14,61.52c0,23.63-4.38,44.2-13.14,61.72s-20.24,32.19-34.44,44
				c-14.2,11.82-30.13,20.64-47.78,26.48c-17.66,5.84-35.24,8.76-52.76,8.76H74.22V12.39z M102.89,268.83h56.94
				c21.24,0,39.75-3.32,55.55-9.96c15.79-6.63,28.87-15.33,39.22-26.08c10.35-10.75,18.12-23.03,23.29-36.83
				c5.18-13.8,7.77-28,7.77-42.61c0-14.59-2.59-28.8-7.77-42.6c-5.18-13.8-12.94-26.08-23.29-36.83
				c-10.35-10.75-23.43-19.44-39.22-26.08c-15.8-6.63-34.32-9.96-55.55-9.96h-56.94V268.83z"/>
		</g>
		<g>
			<path d="M197.25,257.97h0.79l91.58-244.89h30.66L211.81,287.42l-30.99,3.19L76.04,12.39l29.62,0.69L197.25,257.97z"/>
		</g>
	</g>
</g>
</svg>
